<svg t="1593799369051" class="icon" viewBox="0 0 1024 1024" version="1.1" xmlns="http://www.w3.org/2000/svg" p-id="2142" width="200" height="200"><path d="M448 379.776v264.384L646.336 512 448 379.776zM416 736h-2.304a31.68 31.68 0 0 1-23.04-12.416A32.384 32.384 0 0 1 384 704V320a32.384 32.384 0 0 1 6.656-19.52 31.36 31.36 0 0 1 35.008-10.944 32.32 32.32 0 0 1 8.448 4.096l287.04 191.424A31.424 31.424 0 0 1 736 512a31.744 31.744 0 0 1-14.784 27.008l-287.104 191.36a32.256 32.256 0 0 1-18.112 5.632zM512 64C264.96 64 64 264.96 64 512s200.96 448 448 448 448-200.96 448-448-200.96-448-448-448z m0 960c-282.304 0-512-229.696-512-512 0-282.24 229.696-512 512-512s512 229.76 512 512c0 282.304-229.696 512-512 512z" p-id="2143" fill="#8a8a8a"></path></svg>